<?xml version="1.0" encoding="utf-8"?>
<!-- Generator: Adobe Illustrator 22.0.1, SVG Export Plug-In . SVG Version: 6.00 Build 0)  -->
<svg version="1.1"
	 id="svg2" inkscape:output_extension="org.inkscape.output.svg.inkscape" inkscape:version="0.46" sodipodi:docname="AES-SubBytes-1.svg" sodipodi:version="0.32" xmlns:cc="http://creativecommons.org/ns#" xmlns:dc="http://purl.org/dc/elements/1.1/" xmlns:inkscape="http://www.inkscape.org/namespaces/inkscape" xmlns:rdf="http://www.w3.org/1999/02/22-rdf-syntax-ns#" xmlns:sodipodi="http://sodipodi.sourceforge.net/DTD/sodipodi-0.dtd" xmlns:svg="http://www.w3.org/2000/svg"
	 xmlns="http://www.w3.org/2000/svg" xmlns:xlink="http://www.w3.org/1999/xlink" x="0px" y="0px" viewBox="0 0 810 420"
	 style="enable-background:new 0 0 810 420;" xml:space="preserve">
<style type="text/css">
	.st0{fill:#E0F7FF;stroke:#000000;stroke-width:1.6575;stroke-linejoin:round;stroke-miterlimit:4.4;}
	.st1{font-family:'Tahoma';}
	.st2{font-size:21.1759px;}
	.st3{font-size:35.5214px;}
	.st4{fill:#EBFFC2;stroke:#000000;stroke-width:3.311;stroke-linejoin:round;stroke-miterlimit:4.4;}
	.st5{stroke:#000000;stroke-width:1.1017;stroke-linecap:round;}
	.st6{font-family:'ArialMT';}
	.st7{font-size:30px;}
	.st8{stroke:#000000;stroke-linecap:round;}
	.st9{fill:#FFFFFF;stroke:#000000;stroke-width:2;stroke-linejoin:round;stroke-miterlimit:4.4;}
	.st10{font-size:40.1242px;}
</style>
<sodipodi:namedview  bordercolor="#666666" borderopacity="1.0" gridtolerance="10.0" guidetolerance="10.0" id="base" inkscape:current-layer="svg2" inkscape:cx="-231" inkscape:cy="-139.74427" inkscape:pageopacity="0.0" inkscape:pageshadow="2" inkscape:window-height="952" inkscape:window-width="1614" inkscape:window-x="0" inkscape:window-y="0" inkscape:zoom="0.36" objecttolerance="10.0" pagecolor="#ffffff" showgrid="false">
	</sodipodi:namedview>
<defs>
	
	
		<inkscape:perspective  id="perspective2793" inkscape:persp3d-origin="405 : 140 : 1" inkscape:vp_x="0 : 210 : 1" inkscape:vp_y="0 : 1000 : 0" inkscape:vp_z="810 : 210 : 1" sodipodi:type="inkscape:persp3d">
		</inkscape:perspective>
</defs>
<g id="g3173">
	<rect id="rect3702" x="7.5" y="17.6" class="st0" width="72.4" height="72.4"/>
	<rect id="rect3704" x="7.5" y="89.9" class="st0" width="72.4" height="72.4"/>
	<rect id="rect3706" x="7.5" y="162.3" class="st0" width="72.4" height="72.4"/>
	<rect id="rect3708" x="7.5" y="234.6" class="st0" width="72.4" height="72.4"/>
	<rect id="rect3710" x="79.8" y="17.5" class="st0" width="72.4" height="72.4"/>
	<rect id="rect3712" x="79.8" y="89.8" class="st0" width="72.4" height="72.4"/>
	<rect id="rect3714" x="79.8" y="162.2" class="st0" width="72.4" height="72.4"/>
	<rect id="rect3716" x="79.8" y="234.5" class="st0" width="72.4" height="72.4"/>
	<rect id="rect3718" x="152.2" y="17.5" class="st0" width="72.4" height="72.4"/>
	<rect id="rect3720" x="152.2" y="89.8" class="st0" width="72.4" height="72.4"/>
	<rect id="rect3722" x="152.1" y="162.2" class="st0" width="72.4" height="72.4"/>
	<rect id="rect3724" x="152.1" y="234.5" class="st0" width="72.4" height="72.4"/>
	<rect id="rect3726" x="224.5" y="17.4" class="st0" width="72.4" height="72.4"/>
	<rect id="rect3728" x="224.5" y="89.7" class="st0" width="72.4" height="72.4"/>
	<rect id="rect3730" x="224.4" y="162.1" class="st0" width="72.4" height="72.4"/>
	<rect id="rect3732" x="224.4" y="234.5" class="st0" width="72.4" height="72.4"/>
	<text transform="matrix(1 0 0 1 184.9928 143.109)" class="st1 st2">1,2</text>
	<text transform="matrix(1 0 0 1 22.8066 59.1684)" class="st1 st3">c</text>
	<text transform="matrix(1 0 0 1 161.4388 59.1684)" class="st1 st3">m</text>
	<text transform="matrix(1 0 0 1 239.9283 59.1684)" class="st1 st3">e</text>
	<text transform="matrix(1 0 0 1 239.9283 131.662)" class="st1 st3">e</text>
	<text transform="matrix(1 0 0 1 169.9549 131.662)" class="st1 st3">r</text>
	<g id="g26207" transform="translate(1.00247,-26.1751)">
		<text transform="matrix(1 0 0 1 111.8278 169.284)" class="st1 st2">1,1</text>
		<text transform="matrix(1 0 0 1 92.8684 157.837)" class="st1 st3">e</text>
	</g>
	<text transform="matrix(1 0 0 1 21.2498 131.662)" class="st1 st3">h</text>
	<text transform="matrix(1 0 0 1 24.5279 204.082)" class="st1 st3">I</text>
	<g id="g26213" transform="translate(1.00247,-26.1751)">
		<text transform="matrix(1 0 0 1 111.2308 241.357)" class="st1 st2">2,1</text>
		<text transform="matrix(1 0 0 1 92.828 230.118)" class="st1 st3">g</text>
	</g>
	<text transform="matrix(1 0 0 1 166.7115 203.943)" class="st1 st3">o</text>
	<text transform="matrix(1 0 0 1 242.9085 203.943)" class="st1 st3">t</text>
	<text transform="matrix(1 0 0 1 238.9453 276.789)" class="st1 st3">h</text>
	<text transform="matrix(1 0 0 1 168.2146 276.864)" class="st1 st3">s</text>
	<text transform="matrix(1 0 0 1 23.1721 276.864)" class="st1 st3">c</text>
	<text transform="matrix(1 0 0 1 39.3785 70.3306)" class="st1 st2">0,0</text>
	<g id="g26201" transform="translate(1.00247,-26.1751)">
		<text transform="matrix(1 0 0 1 93.2155 85.3435)" class="st1 st3">o</text>
		<text transform="matrix(1 0 0 1 111.8278 96.5057)" class="st1 st2">0,1</text>
	</g>
	<text transform="matrix(1 0 0 1 185.4218 70.3409)" class="st1 st2">0,2</text>
	<text transform="matrix(1 0 0 1 258.0138 70.3409)" class="st1 st2">0,3</text>
	<text transform="matrix(1 0 0 1 40.0241 143.352)" class="st1 st2">1,0</text>
	<text transform="matrix(1 0 0 1 258.0138 143.109)" class="st1 st2">1,3</text>
	<text transform="matrix(1 0 0 1 39.633 215.241)" class="st1 st2">2,0</text>
	<text transform="matrix(1 0 0 1 184.7168 215.359)" class="st1 st2">2,2</text>
	<text transform="matrix(1 0 0 1 257.6108 215.398)" class="st1 st2">2,3</text>
	<text transform="matrix(1 0 0 1 39.7056 287.663)" class="st1 st2">3,0</text>
	<g id="g26219" transform="translate(1.00247,-26.1751)">
		<text transform="matrix(1 0 0 1 93.3224 303.039)" class="st1 st3">a</text>
		<text transform="matrix(1 0 0 1 111.5728 313.985)" class="st1 st2">3,1</text>
	</g>
	<text transform="matrix(1 0 0 1 184.8558 287.81)" class="st1 st2">3,2</text>
	<text transform="matrix(1 0 0 1 257.7248 287.516)" class="st1 st2">3,3</text>
	<rect id="rect18330" x="514.9" y="16.7" class="st0" width="72.4" height="72.4"/>
	<rect id="rect18332" x="514.9" y="89" class="st0" width="72.4" height="72.4"/>
	<rect id="rect18334" x="514.8" y="161.4" class="st0" width="72.4" height="72.4"/>
	<rect id="rect18336" x="514.8" y="233.7" class="st0" width="72.4" height="72.4"/>
	<rect id="rect18338" x="587.2" y="16.6" class="st0" width="72.4" height="72.4"/>
	<rect id="rect18340" x="587.2" y="88.9" class="st0" width="72.4" height="72.4"/>
	<rect id="rect18342" x="587.2" y="161.3" class="st0" width="72.4" height="72.4"/>
	<rect id="rect18344" x="587.2" y="233.6" class="st0" width="72.4" height="72.4"/>
	<rect id="rect18346" x="659.5" y="16.6" class="st0" width="72.4" height="72.4"/>
	<rect id="rect18348" x="659.5" y="88.9" class="st0" width="72.4" height="72.4"/>
	<rect id="rect18350" x="659.5" y="161.3" class="st0" width="72.4" height="72.4"/>
	<rect id="rect18352" x="659.5" y="233.6" class="st0" width="72.4" height="72.4"/>
	<rect id="rect18354" x="731.8" y="16.5" class="st0" width="72.4" height="72.4"/>
	<rect id="rect18356" x="731.8" y="88.8" class="st0" width="72.4" height="72.4"/>
	<rect id="rect18358" x="731.8" y="161.2" class="st0" width="72.4" height="72.4"/>
	<rect id="rect18360" x="731.8" y="233.5" class="st0" width="72.4" height="72.4"/>
	<text transform="matrix(1 0 0 1 664.1279 275.932)" class="st1 st3">19</text>
	<text transform="matrix(1 0 0 1 619.6118 214.25)" class="st1 st2">2,1</text>
	<text transform="matrix(1 0 0 1 692.3698 142.176)" class="st1 st2">1,2</text>
	<text transform="matrix(1 0 0 1 528.6844 58.2359)" class="st1 st3">3</text>
	<text transform="matrix(1 0 0 1 591.848 58.2359)" class="st1 st3">15</text>
	<text transform="matrix(1 0 0 1 664.3419 58.2359)" class="st1 st3">13</text>
	<text transform="matrix(1 0 0 1 746.9595 58.2359)" class="st1 st3">5</text>
	<text transform="matrix(1 0 0 1 746.9595 130.73)" class="st1 st3">2</text>
	<text transform="matrix(1 0 0 1 664.3419 130.73)" class="st1 st3">18</text>
	<text transform="matrix(1 0 0 1 600.9014 130.73)" class="st1 st3">5</text>
	<text transform="matrix(1 0 0 1 528.8354 130.73)" class="st1 st3">8</text>
	<text transform="matrix(1 0 0 1 528.8354 203.149)" class="st1 st3">9</text>
	<text transform="matrix(1 0 0 1 601.3295 203.01)" class="st1 st3">7</text>
	<text transform="matrix(1 0 0 1 664.3419 203.01)" class="st1 st3">15</text>
	<text transform="matrix(1 0 0 1 736.8359 203.01)" class="st1 st3">20</text>
	<text transform="matrix(1 0 0 1 746.5314 275.857)" class="st1 st3">8</text>
	<text transform="matrix(1 0 0 1 601.3295 275.932)" class="st1 st3">1</text>
	<text transform="matrix(1 0 0 1 529.0494 275.932)" class="st1 st3">3</text>
	<text transform="matrix(1 0 0 1 546.7558 69.3981)" class="st1 st2">0,0</text>
	<text transform="matrix(1 0 0 1 620.2078 69.3981)" class="st1 st2">0,1</text>
	<text transform="matrix(1 0 0 1 692.7998 69.4084)" class="st1 st2">0,2</text>
	<text transform="matrix(1 0 0 1 765.3908 69.4084)" class="st1 st2">0,3</text>
	<text transform="matrix(1 0 0 1 547.4018 142.419)" class="st1 st2">1,0</text>
	<text transform="matrix(1 0 0 1 620.2078 142.176)" class="st1 st2">1,1</text>
	<text transform="matrix(1 0 0 1 765.3908 142.176)" class="st1 st2">1,3</text>
	<text transform="matrix(1 0 0 1 547.0108 214.309)" class="st1 st2">2,0</text>
	<text transform="matrix(1 0 0 1 692.0948 214.426)" class="st1 st2">2,2</text>
	<text transform="matrix(1 0 0 1 764.9888 214.465)" class="st1 st2">2,3</text>
	<text transform="matrix(1 0 0 1 547.0828 286.73)" class="st1 st2">3,0</text>
	<text transform="matrix(1 0 0 1 619.9528 286.878)" class="st1 st2">3,1</text>
	<text transform="matrix(1 0 0 1 692.2328 286.878)" class="st1 st2">3,2</text>
	<text transform="matrix(1 0 0 1 765.1018 286.583)" class="st1 st2">3,3</text>
	<path id="rect1882" class="st4" d="M343.4,72.7c-5.7,0-9.9,4.1-9.9,8.7l0.1,37.1c0,4.6,4.2,8.7,9.9,8.7h125.2
		c5.7,0,9.9-4.1,9.9-8.6l-0.1-37.1c0-4.6-4.2-8.6-9.9-8.6H343.4z"/>
	<path id="path3662" class="st5" d="M316.3,158.7h144.6v-15.5l35.2,17.6l-34.9,18.5v-15.2H316L316.3,158.7z"/>
	<text transform="matrix(1 0 0 1 352.6303 108.8066)" class="st6 st7">Decimal</text>
	<path id="path24744" class="st8" d="M675.7,217.4l-16.6,11.4l5.7,4.1c-101.2,153.2-346.9,193.3-470.8-8.8l-5.6,0.2
		c124.4,209.4,382.3,168.7,480.7,10.9l6.1,3.4L675.7,217.4z"/>
	<rect id="rect27312" x="394.7" y="329" class="st9" width="74.2" height="74.2"/>
	<text transform="matrix(1 0 0 1 420.3338 380.751)" class="st1 st10">S</text>
</g>
</svg>
